<svg xmlns="http://www.w3.org/2000/svg" width="650" height="650" fill="none"><path fill="#E0DEED" d="M416.5 253.5a247.1 247.1 0 0 1 19.2-17 118.9 118.9 0 0 1 29-16.2 76 76 0 0 1 28.8-4.1 85.7 85.7 0 0 1 16.2 1.7 178.3 178.3 0 0 1 16 4 116.4 116.4 0 0 1 17.7 7 167 167 0 0 1 22.4 13.1 182.8 182.8 0 0 1 10.6 8.6 96.4 96.4 0 0 1 24.9 36.4 131.5 131.5 0 0 1 10 40.8 166.2 166.2 0 0 1 .9 21.5 82 82 0 0 1-1 11.7 89.8 89.8 0 0 1-7.5 25.6 135.5 135.5 0 0 1-8.1 17 166 166 0 0 1-7.6 12.3 95.8 95.8 0 0 1-22.4 22.6 125.4 125.4 0 0 1-22 13.1 67 67 0 0 1-17.8 4.5 66.7 66.7 0 0 1-12.8.1 116 116 0 0 1-13.7-1.4 244.3 244.3 0 0 0-7.7-1.1A740.1 740.1 0 0 1 481 452l-2.2-.4-1.8-.3c-.6 0-1.2-.2-1.7-.3l-1.8-.3-1.6-.3c-.6 0-1.1-.2-1.7-.3a686.5 686.5 0 0 1-8.2-1.7 110.2 110.2 0 0 1-12.5-4.2 49.6 49.6 0 0 1-23.1-20.5 180.5 180.5 0 0 1-4.2-6.2l-.8-1.2-.8-1.3-.8-1.3a471.3 471.3 0 0 0-8-11.6 113 113 0 0 0-7.7-9.2 64.3 64.3 0 0 0-4.9-4.2 24 24 0 0 0-5.6-3 10.6 10.6 0 0 0-4.2-.5 5.5 5.5 0 0 0-2.8 1.3 4 4 0 0 0-1.1 1.4 5 5 0 0 0-.7 1.7 13.8 13.8 0 0 0 .1 5.8 35.9 35.9 0 0 0 1.5 5.6 84.7 84.7 0 0 0 3.8 10.3 3072.2 3072.2 0 0 1 6.4 16.9 288.6 288.6 0 0 1 4.2 14.1 163 163 0 0 1 3.8 23.3 231 231 0 0 1 .8 19.4v2.6a374.9 374.9 0 0 1-2 35.9 171.5 171.5 0 0 1-4.6 21.4 94.1 94.1 0 0 1-9 20 61.3 61.3 0 0 1-12.5 13.9 54.8 54.8 0 0 1-15.4 8.5 72.1 72.1 0 0 1-11.6 3.8 218.8 218.8 0 0 1-12.4 2.7 104.6 104.6 0 0 1-12.8 1.6 164.4 164.4 0 0 1-35.8-.1 313.8 313.8 0 0 1-16.4-2 232 232 0 0 1-21-4.4 183.4 183.4 0 0 1-21.7-7.8 107.3 107.3 0 0 1-21.3-13 85.2 85.2 0 0 1-8.2-8.3 64.8 64.8 0 0 1-8-12.7 49.9 49.9 0 0 1-4.5-19 64.1 64.1 0 0 1 1.3-17.8 84.3 84.3 0 0 1 5.4-18.2 132.8 132.8 0 0 1 7.6-16.7 243.2 243.2 0 0 1 9.2-16.6 611.2 611.2 0 0 1 14.7-24.3 797.2 797.2 0 0 0 8.5-14.7 91.2 91.2 0 0 0 3.8-9.4 38.2 38.2 0 0 0 1.2-6.4 18.2 18.2 0 0 0-.4-5 8.3 8.3 0 0 0-1.6-3 7 7 0 0 0-3.7-2.2 12.2 12.2 0 0 0-3-.4 14.4 14.4 0 0 0-4.4.5 26.9 26.9 0 0 0-5.7 2.1 59 59 0 0 0-15.6 10 153.7 153.7 0 0 0-14.3 13.1 549.8 549.8 0 0 0-10.3 10.4l-2.1 2.2a697 697 0 0 1-16.1 15.3 217.5 217.5 0 0 1-19.5 15.1 154.1 154.1 0 0 1-24 12.8 106.9 106.9 0 0 1-31 7.1 86.3 86.3 0 0 1-13.5-.7 75.7 75.7 0 0 1-9.7-2.5 36.5 36.5 0 0 1-10.1-5.6 47.4 47.4 0 0 1-9.9-9.7 68.6 68.6 0 0 1-8.4-12.9 97.1 97.1 0 0 1-10.1-27 123.7 123.7 0 0 1-2.4-16.7 88.9 88.9 0 0 1 .5-11.2 65.3 65.3 0 0 1 3-14 61.6 61.6 0 0 1 14.6-24.4 70.6 70.6 0 0 1 13.2-11 132.6 132.6 0 0 1 25.3-13.5 120.7 120.7 0 0 1 29.6-7.7 313.6 313.6 0 0 1 9.7-1.4l1.5-.2 1.6-.2 1.7-.3 1.9-.2a548.4 548.4 0 0 1 4-.5l2-.2 1.9-.2 1.8-.2a1418.2 1418.2 0 0 1 9.5-1l1.9-.3a207 207 0 0 0 17.4-3.2 37.7 37.7 0 0 0 5.5-2.2 12 12 0 0 0 3.4-3 13 13 0 0 0 1.1-1.4 9.8 9.8 0 0 0 .7-1.6 6 6 0 0 0 .3-2 6.5 6.5 0 0 0-.8-2.9 14.5 14.5 0 0 0-2.4-3.7 20.4 20.4 0 0 0-3.8-3.3 45.4 45.4 0 0 0-10-5.6 111.4 111.4 0 0 0-7.2-3.1l-1.4-.6-1.3-.5-1.3-.5-1-.4-1.2-.4-1.2-.5-1.2-.5-1.1-.4-1.1-.4a408.9 408.9 0 0 1-9.8-4.3 106.4 106.4 0 0 1-18.9-12.1 92.9 92.9 0 0 1-10.2-9.5 106.6 106.6 0 0 1-14-17.7 154.1 154.1 0 0 1-6.5-11.4 39.1 39.1 0 0 1-2.7-7 113 113 0 0 1-3.5-14.6 62.9 62.9 0 0 1 .4-16.7 73.2 73.2 0 0 1 4.7-14.4 59.4 59.4 0 0 1 43.2-33.1 78.2 78.2 0 0 1 33.3.3 68.9 68.9 0 0 1 8.6 2.7 397.8 397.8 0 0 1 9 3.5 126.6 126.6 0 0 1 12.9 6.7 142.1 142.1 0 0 1 21.6 16.5 87.4 87.4 0 0 1 11.6 13.5 131.5 131.5 0 0 1 10.7 17.5l.8 1.4.8 1.5.8 1.6 1 1.6.8 1.6.8 1.4a194.9 194.9 0 0 0 7.8 12.5 41.5 41.5 0 0 0 5.6 6.3 68.4 68.4 0 0 0 4 3.6 20.4 20.4 0 0 0 6.6 3 10.7 10.7 0 0 0 7.4-1.4 8.2 8.2 0 0 0 1.9-2 18.5 18.5 0 0 0 3.7-8.9 42.6 42.6 0 0 0 1-9.2 77.7 77.7 0 0 0-.5-14l-.1-1.3-.2-1.3-.1-1.2a1859 1859 0 0 0-1.5-9.8l-.3-1.4-.3-1.6c0-.6-.2-1.1-.3-1.6a904.2 904.2 0 0 0-.5-3l-.3-1.6a203 203 0 0 0-2-9.8l-.5-2-.4-2-.4-1.7a913 913 0 0 1-2.4-12l-.3-1.4a630.7 630.7 0 0 1-.7-3.8l-.2-1.3a212.8 212.8 0 0 1-1.4-12.7 138.8 138.8 0 0 1 0-12.3A66.4 66.4 0 0 1 276.6 84a103.7 103.7 0 0 1 14.3-14.4 65.3 65.3 0 0 1 30-13.5 82.7 82.7 0 0 1 21.6-2.2 117.3 117.3 0 0 1 24 2.1 199 199 0 0 1 20.4 4.7 130.4 130.4 0 0 1 26.2 11.5A78.2 78.2 0 0 1 428 85a61.4 61.4 0 0 1 10.5 17.4 59.1 59.1 0 0 1 4 25 71.6 71.6 0 0 1-1.6 13.8 111 111 0 0 1-4.4 17.3 224.1 224.1 0 0 1-8.5 22.4l-.8 1.8-.9 2-.9 2-.8 1.7-.7 1.5-.6 1.5-.7 1.6a1301.7 1301.7 0 0 0-1.4 3l-.6 1.4a572.8 572.8 0 0 0-3.2 7.2l-.8 1.8-.8 1.8-.7 1.8-.8 1.8-.8 1.9-1 2A767.4 767.4 0 0 1 408 226l-.8 1.8-.8 1.6a1044.1 1044.1 0 0 1-3.5 7.4l-1.2 2.5-1 2.2a573 573 0 0 0-5.9 13.4 52 52 0 0 0-1.8 6.9 8.4 8.4 0 0 0 .1 2.2 4.8 4.8 0 0 0 .7 1.5 3 3 0 0 0 .9.8 4 4 0 0 0 1.2.5 5.7 5.7 0 0 0 1.8.2 8.7 8.7 0 0 0 2.3-.3 10.7 10.7 0 0 0 2.7-1.1 20.6 20.6 0 0 0 3-2 39 39 0 0 0 5.4-4.7 129 129 0 0 0 5.6-5.4"/><path fill="#FF6B35" d="M545.2 178.1a170.1 170.1 0 0 0 3.5-10.6 39.6 39.6 0 0 0 1.1-9 24.2 24.2 0 0 0-12.7-17.4 25.5 25.5 0 0 0-7.6-2.7 37 37 0 0 0-7.8-.8 35.2 35.2 0 0 0-9 1.5 32 32 0 0 0-7.4 3 57.1 57.1 0 0 0-10.5 7.4 40.7 40.7 0 0 0-11.9 22 20.4 20.4 0 0 0 .7 7.2c.4 1 1 2 1.5 2.8a30 30 0 0 0 5.5 5.7 26 26 0 0 0 6.7 4 49.4 49.4 0 0 0 19.5 4 37.4 37.4 0 0 0 18.3-4.9 44 44 0 0 0 3.5-2.5 21 21 0 0 0 3.8-4c1.1-1.7 2.1-3.6 3-5.7"/></svg>